Results
version=1
nRows=4
nColumns=171
inDegrees=yes
endheader
time	/jointset/ground_pelvis/pelvis_tilt/value	/jointset/ground_pelvis/pelvis_tilt/speed	/jointset/ground_pelvis/pelvis_list/value	/jointset/ground_pelvis/pelvis_list/speed	/jointset/ground_pelvis/pelvis_rotation/value	/jointset/ground_pelvis/pelvis_rotation/speed	/jointset/ground_pelvis/pelvis_tx/value	/jointset/ground_pelvis/pelvis_tx/speed	/jointset/ground_pelvis/pelvis_ty/value	/jointset/ground_pelvis/pelvis_ty/speed	/jointset/ground_pelvis/pelvis_tz/value	/jointset/ground_pelvis/pelvis_tz/speed	/jointset/hip_r/hip_flexion_r/value	/jointset/hip_r/hip_flexion_r/speed	/jointset/hip_r/hip_adduction_r/value	/jointset/hip_r/hip_adduction_r/speed	/jointset/hip_r/hip_rotation_r/value	/jointset/hip_r/hip_rotation_r/speed	/jointset/walker_knee_r/knee_angle_r/value	/jointset/walker_knee_r/knee_angle_r/speed	/jointset/patellofemoral_r/knee_angle_r_beta/value	/jointset/patellofemoral_r/knee_angle_r_beta/speed	/jointset/ankle_r/ankle_angle_r/value	/jointset/ankle_r/ankle_angle_r/speed	/jointset/subtalar_r/subtalar_angle_r/value	/jointset/subtalar_r/subtalar_angle_r/speed	/jointset/mtp_r/mtp_angle_r/value	/jointset/mtp_r/mtp_angle_r/speed	/jointset/hip_l/hip_flexion_l/value	/jointset/hip_l/hip_flexion_l/speed	/jointset/hip_l/hip_adduction_l/value	/jointset/hip_l/hip_adduction_l/speed	/jointset/hip_l/hip_rotation_l/value	/jointset/hip_l/hip_rotation_l/speed	/jointset/walker_knee_l/knee_angle_l/value	/jointset/walker_knee_l/knee_angle_l/speed	/jointset/patellofemoral_l/knee_angle_l_beta/value	/jointset/patellofemoral_l/knee_angle_l_beta/speed	/jointset/ankle_l/ankle_angle_l/value	/jointset/ankle_l/ankle_angle_l/speed	/jointset/subtalar_l/subtalar_angle_l/value	/jointset/subtalar_l/subtalar_angle_l/speed	/jointset/mtp_l/mtp_angle_l/value	/jointset/mtp_l/mtp_angle_l/speed	/forceset/addbrev_r/activation	/forceset/addlong_r/activation	/forceset/addlong_r/fiber_length	/forceset/addmagDist_r/activation	/forceset/addmagIsch_r/activation	/forceset/addmagIsch_r/fiber_length	/forceset/addmagMid_r/activation	/forceset/addmagProx_r/activation	/forceset/bflh140_r/activation	/forceset/bflh140_r/fiber_length	/forceset/bfsh140_r/activation	/forceset/edl_r/activation	/forceset/edl_r/fiber_length	/forceset/ehl_r/activation	/forceset/ehl_r/fiber_length	/forceset/fdl_r/activation	/forceset/fdl_r/fiber_length	/forceset/fhl_r/activation	/forceset/fhl_r/fiber_length	/forceset/gaslat140_r/activation	/forceset/gaslat140_r/fiber_length	/forceset/gasmed_r/activation	/forceset/gasmed_r/fiber_length	/forceset/glmax1_r/activation	/forceset/glmax2_r/activation	/forceset/glmax3_r/activation	/forceset/glmed1_r/activation	/forceset/glmed2_r/activation	/forceset/glmed3_r/activation	/forceset/glmin1_r/activation	/forceset/glmin2_r/activation	/forceset/glmin3_r/activation	/forceset/glmin3_r/fiber_length	/forceset/grac_r/activation	/forceset/iliacus_r/activation	/forceset/perbrev_r/activation	/forceset/perbrev_r/fiber_length	/forceset/perlong_r/activation	/forceset/perlong_r/fiber_length	/forceset/piri_r/activation	/forceset/piri_r/fiber_length	/forceset/psoas_r/activation	/forceset/recfem_r/activation	/forceset/recfem_r/fiber_length	/forceset/sart_r/activation	/forceset/semimem_r/activation	/forceset/semimem_r/fiber_length	/forceset/semiten_r/activation	/forceset/semiten_r/fiber_length	/forceset/soleus_r/activation	/forceset/soleus_r/fiber_length	/forceset/tfl_r/activation	/forceset/tfl_r/fiber_length	/forceset/tibant_r/activation	/forceset/tibant_r/fiber_length	/forceset/tibpost_r/activation	/forceset/tibpost_r/fiber_length	/forceset/vasint_r/activation	/forceset/vasint_r/fiber_length	/forceset/vaslat140_r/activation	/forceset/vaslat140_r/fiber_length	/forceset/vasmed_r/activation	/forceset/vasmed_r/fiber_length	/forceset/addbrev_l/activation	/forceset/addlong_l/activation	/forceset/addlong_l/fiber_length	/forceset/addmagDist_l/activation	/forceset/addmagIsch_l/activation	/forceset/addmagIsch_l/fiber_length	/forceset/addmagMid_l/activation	/forceset/addmagProx_l/activation	/forceset/bflh140_l/activation	/forceset/bflh140_l/fiber_length	/forceset/bfsh140_l/activation	/forceset/edl_l/activation	/forceset/edl_l/fiber_length	/forceset/ehl_l/activation	/forceset/ehl_l/fiber_length	/forceset/fdl_l/activation	/forceset/fdl_l/fiber_length	/forceset/fhl_l/activation	/forceset/fhl_l/fiber_length	/forceset/gaslat140_l/activation	/forceset/gaslat140_l/fiber_length	/forceset/gasmed_l/activation	/forceset/gasmed_l/fiber_length	/forceset/glmax1_l/activation	/forceset/glmax2_l/activation	/forceset/glmax3_l/activation	/forceset/glmed1_l/activation	/forceset/glmed2_l/activation	/forceset/glmed3_l/activation	/forceset/glmin1_l/activation	/forceset/glmin2_l/activation	/forceset/glmin3_l/activation	/forceset/glmin3_l/fiber_length	/forceset/grac_l/activation	/forceset/iliacus_l/activation	/forceset/perbrev_l/activation	/forceset/perbrev_l/fiber_length	/forceset/perlong_l/activation	/forceset/perlong_l/fiber_length	/forceset/piri_l/activation	/forceset/piri_l/fiber_length	/forceset/psoas_l/activation	/forceset/recfem_l/activation	/forceset/recfem_l/fiber_length	/forceset/sart_l/activation	/forceset/semimem_l/activation	/forceset/semimem_l/fiber_length	/forceset/semiten_l/activation	/forceset/semiten_l/fiber_length	/forceset/soleus_l/activation	/forceset/soleus_l/fiber_length	/forceset/tfl_l/activation	/forceset/tfl_l/fiber_length	/forceset/tibant_l/activation	/forceset/tibant_l/fiber_length	/forceset/tibpost_l/activation	/forceset/tibpost_l/fiber_length	/forceset/vasint_l/activation	/forceset/vasint_l/fiber_length	/forceset/vaslat140_l/activation	/forceset/vaslat140_l/fiber_length	/forceset/vasmed_l/activation	/forceset/vasmed_l/fiber_length
      0.03600369	      0.54466259	     20.71376763	      0.00000000	     -0.00000000	      0.00000000	      0.00000000	     -0.00004185	     -0.00122311	      0.92455613	     -0.32122073	     -0.00000000	      0.00000000	     -0.84963982	    -32.01735971	      0.05419828	      2.25314723	     -0.59179120	    -35.43852132	     -0.92046958	    -32.72067606	     -0.01606522	     -0.57108353	     -7.68648948	   -225.22629107	     -1.73232691	    -16.10577150	      0.00000000	      0.00000000	     -0.84963982	    -32.01735971	      0.05419828	      2.25314718	     -0.59179119	    -35.43852127	     -0.92046939	    -32.72067616	     -0.01606522	     -0.57108353	     -7.68648945	   -225.22629279	     -1.73232692	    -16.10577209	      0.00000000	      0.00000000	      0.00536453	      0.00536453	      0.11342055	      0.00536453	      0.00536453	      0.12467634	      0.00536453	      0.00536453	      0.00536453	      0.08957246	      0.00536453	      0.00536453	      0.07304127	      0.00536453	      0.08272441	      0.00536453	      0.04499356	      0.00536453	      0.05016276	      0.00536453	      0.06883912	      0.00536453	      0.05969394	      0.00536453	      0.00536453	      0.00536453	      0.00536453	      0.00536453	      0.00536453	      0.00536453	      0.00536453	      0.00536453	      0.03772544	      0.00536453	      0.00536453	      0.00536453	      0.04711122	      0.00536453	      0.05252333	      0.00536453	      0.02302352	      0.00536453	      0.00536453	      0.06320228	      0.00536453	      0.00536453	      0.08020469	      0.00536453	      0.21251846	      0.00536453	      0.04005080	      0.00536453	      0.09895514	      0.00536453	      0.07171523	      0.00536453	      0.03869560	      0.00536453	      0.07698714	      0.00536453	      0.07980217	      0.00536453	      0.07644949	      0.00536453	      0.00536453	      0.11342055	      0.00536453	      0.00536453	      0.12467634	      0.00536453	      0.00536453	      0.00536453	      0.08957246	      0.00536453	      0.00536453	      0.07304127	      0.00536453	      0.08272441	      0.00536453	      0.04499356	      0.00536453	      0.05016276	      0.00536453	      0.06883912	      0.00536453	      0.05969394	      0.00536453	      0.00536453	      0.00536453	      0.00536453	      0.00536453	      0.00536453	      0.00536453	      0.00536453	      0.00536453	      0.03772544	      0.00536453	      0.00536453	      0.00536453	      0.04711122	      0.00536453	      0.05252333	      0.00536453	      0.02302352	      0.00536453	      0.00536453	      0.06320228	      0.00536453	      0.00536453	      0.08020469	      0.00536453	      0.21251846	      0.00536453	      0.04005080	      0.00536453	      0.09895514	      0.00536453	      0.07171523	      0.00536453	      0.03869560	      0.00536453	      0.07698714	      0.00536453	      0.07980217	      0.00536453	      0.07644949
      0.03744574	      0.57448312	     20.63778972	      0.00000000	     -0.00000001	      0.00000000	     -0.00000000	     -0.00004357	     -0.00115929	      0.92408241	     -0.33579060	     -0.00000000	      0.00000000	     -0.89572213	    -31.88440624	      0.05746748	      2.28096254	     -0.64404560	    -37.03119831	     -0.96736843	    -32.31326656	     -0.01688376	     -0.56397289	     -8.00505153	   -216.53148411	     -1.75096643	     -9.73509769	      0.00000000	      0.00000000	     -0.89572213	    -31.88440624	      0.05746748	      2.28096249	     -0.64404560	    -37.03119826	     -0.96736824	    -32.31326668	     -0.01688376	     -0.56397290	     -8.00505149	   -216.53148582	     -1.75096644	     -9.73509826	      0.00000000	      0.00000000	      0.00517886	      0.00517886	      0.11345855	      0.00517886	      0.00517886	      0.12464801	      0.00517886	      0.00517886	      0.00517886	      0.08955194	      0.00517886	      0.00517886	      0.07321280	      0.00517886	      0.08291780	      0.00517886	      0.04495739	      0.00517886	      0.05008761	      0.00517886	      0.06859666	      0.00517886	      0.05947312	      0.00517886	      0.00517886	      0.00517886	      0.00517886	      0.00517886	      0.00517886	      0.00517886	      0.00517886	      0.00517886	      0.03770528	      0.00517886	      0.00517886	      0.00517886	      0.04706727	      0.00517886	      0.05246518	      0.00517886	      0.02299421	      0.00517886	      0.00517886	      0.06319219	      0.00517886	      0.00517886	      0.08019603	      0.00517886	      0.21251027	      0.00517886	      0.03985427	      0.00517886	      0.09896651	      0.00517886	      0.07193128	      0.00517886	      0.03865650	      0.00517886	      0.07695206	      0.00517886	      0.07977364	      0.00517886	      0.07642236	      0.00517886	      0.00517886	      0.11345855	      0.00517886	      0.00517886	      0.12464801	      0.00517886	      0.00517886	      0.00517886	      0.08955194	      0.00517886	      0.00517886	      0.07321280	      0.00517886	      0.08291780	      0.00517886	      0.04495739	      0.00517886	      0.05008761	      0.00517886	      0.06859666	      0.00517886	      0.05947312	      0.00517886	      0.00517886	      0.00517886	      0.00517886	      0.00517886	      0.00517886	      0.00517886	      0.00517886	      0.00517886	      0.03770528	      0.00517886	      0.00517886	      0.00517886	      0.04706727	      0.00517886	      0.05246518	      0.00517886	      0.02299421	      0.00517886	      0.00517886	      0.06319219	      0.00517886	      0.00517886	      0.08019603	      0.00517886	      0.21251027	      0.00517886	      0.03985427	      0.00517886	      0.09896651	      0.00517886	      0.07193128	      0.00517886	      0.03865650	      0.00517886	      0.07695206	      0.00517886	      0.07977364	      0.00517886	      0.07642236
      0.03868299	      0.59995984	     20.54038909	      0.00000000	     -0.00000001	      0.00000000	     -0.00000000	     -0.00004496	     -0.00110231	      0.92365920	     -0.34833445	     -0.00000000	      0.00000000	     -0.93507492	    -31.72200981	      0.06030438	      2.30492854	     -0.69070180	    -38.38621075	     -1.00710579	    -31.91505431	     -0.01757731	     -0.55702278	     -8.26820397	   -208.82187936	     -1.75960556	     -4.22800564	      0.00000000	      0.00000000	     -0.93507492	    -31.72200982	      0.06030438	      2.30492847	     -0.69070180	    -38.38621070	     -1.00710560	    -31.91505443	     -0.01757731	     -0.55702278	     -8.26820393	   -208.82188106	     -1.75960558	     -4.22800619	      0.00000000	      0.00000000	      0.00501957	      0.00501957	      0.11349115	      0.00501957	      0.00501957	      0.12462394	      0.00501957	      0.00501957	      0.00501957	      0.08953405	      0.00501957	      0.00501957	      0.07335605	      0.00501957	      0.08307726	      0.00501957	      0.04492516	      0.00501957	      0.05002331	      0.00501957	      0.06839342	      0.00501957	      0.05928330	      0.00501957	      0.00501957	      0.00501957	      0.00501957	      0.00501957	      0.00501957	      0.00501957	      0.00501957	      0.00501957	      0.03768753	      0.00501957	      0.00501957	      0.00501957	      0.04703321	      0.00501957	      0.05241882	      0.00501957	      0.02296818	      0.00501957	      0.00501957	      0.06318366	      0.00501957	      0.00501957	      0.08018849	      0.00501957	      0.21250309	      0.00501957	      0.03968592	      0.00501957	      0.09897632	      0.00501957	      0.07211027	      0.00501957	      0.03862200	      0.00501957	      0.07692228	      0.00501957	      0.07974943	      0.00501957	      0.07639935	      0.00501957	      0.00501957	      0.11349115	      0.00501957	      0.00501957	      0.12462394	      0.00501957	      0.00501957	      0.00501957	      0.08953405	      0.00501957	      0.00501957	      0.07335605	      0.00501957	      0.08307726	      0.00501957	      0.04492516	      0.00501957	      0.05002331	      0.00501957	      0.06839342	      0.00501957	      0.05928330	      0.00501957	      0.00501957	      0.00501957	      0.00501957	      0.00501957	      0.00501957	      0.00501957	      0.00501957	      0.00501957	      0.03768753	      0.00501957	      0.00501957	      0.00501957	      0.04703321	      0.00501957	      0.05241882	      0.00501957	      0.02296818	      0.00501957	      0.00501957	      0.06318366	      0.00501957	      0.00501957	      0.08018849	      0.00501957	      0.21250309	      0.00501957	      0.03968592	      0.00501957	      0.09897632	      0.00501957	      0.07211027	      0.00501957	      0.03862200	      0.00501957	      0.07692229	      0.00501957	      0.07974943	      0.00501957	      0.07639935
      0.03992023	      0.62529887	     20.41558914	      0.00000000	     -0.00000001	      0.00000000	     -0.00000000	     -0.00004629	     -0.00104370	      0.92322045	     -0.36091235	      0.00000000	      0.00000000	     -0.97420137	    -31.51917845	      0.06317134	      2.32965459	     -0.73902567	    -39.72637831	     -1.04632689	    -31.47993086	     -0.01826185	     -0.54942844	     -8.52172423	   -200.97492717	     -1.76143808	      1.25943694	      0.00000000	      0.00000000	     -0.97420137	    -31.51917846	      0.06317134	      2.32965452	     -0.73902567	    -39.72637826	     -1.04632670	    -31.47993099	     -0.01826185	     -0.54942844	     -8.52172420	   -200.97492885	     -1.76143810	      1.25943641	      0.00000000	      0.00000000	      0.00486027	      0.00486027	      0.11352367	      0.00486027	      0.00486027	      0.12460012	      0.00486027	      0.00486027	      0.00486027	      0.08951590	      0.00486027	      0.00486027	      0.07349557	      0.00486027	      0.08323065	      0.00486027	      0.04489185	      0.00486027	      0.04995927	      0.00486027	      0.06819558	      0.00486027	      0.05909376	      0.00486027	      0.00486027	      0.00486027	      0.00486027	      0.00486027	      0.00486027	      0.00486027	      0.00486027	      0.00486027	      0.03766938	      0.00486027	      0.00486027	      0.00486027	      0.04700257	      0.00486027	      0.05237577	      0.00486027	      0.02294137	      0.00486027	      0.00486027	      0.06317527	      0.00486027	      0.00486027	      0.08018084	      0.00486027	      0.21249578	      0.00486027	      0.03951782	      0.00486027	      0.09898617	      0.00486027	      0.07228069	      0.00486027	      0.03858664	      0.00486027	      0.07689286	      0.00486027	      0.07972551	      0.00486027	      0.07637662	      0.00486027	      0.00486027	      0.11352367	      0.00486027	      0.00486027	      0.12460012	      0.00486027	      0.00486027	      0.00486027	      0.08951590	      0.00486027	      0.00486027	      0.07349557	      0.00486027	      0.08323065	      0.00486027	      0.04489185	      0.00486027	      0.04995927	      0.00486027	      0.06819558	      0.00486027	      0.05909376	      0.00486027	      0.00486027	      0.00486027	      0.00486027	      0.00486027	      0.00486027	      0.00486027	      0.00486027	      0.00486027	      0.03766938	      0.00486027	      0.00486027	      0.00486027	      0.04700257	      0.00486027	      0.05237577	      0.00486027	      0.02294137	      0.00486027	      0.00486027	      0.06317527	      0.00486027	      0.00486027	      0.08018084	      0.00486027	      0.21249578	      0.00486027	      0.03951782	      0.00486027	      0.09898617	      0.00486027	      0.07228069	      0.00486027	      0.03858664	      0.00486027	      0.07689286	      0.00486027	      0.07972551	      0.00486027	      0.07637662
